<svg xmlns="http://www.w3.org/2000/svg" width="980" height="280" viewBox="0 0 980 280">
  <style>
    .box { fill:#ffffff; stroke:#0f172a; stroke-width:2; rx:10; }
    .title { font: 700 14px system-ui, -apple-system, Segoe UI, Roboto, Arial; fill:#0f172a; }
    .text { font: 12px system-ui, -apple-system, Segoe UI, Roboto, Arial; fill:#0f172a; }
    .arrow { stroke:#0f172a; stroke-width:2; marker-end:url(#m); }
  </style>
  <defs>
    <marker id="m" markerWidth="10" markerHeight="10" refX="8" refY="3" orient="auto">
      <path d="M0,0 L8,3 L0,6 Z" fill="#0f172a"/>
    </marker>
  </defs>

  <text x="20" y="26" class="title">Ether Lab (cloud GPU) — reference topology</text>

  <rect x="20" y="70" width="240" height="90" class="box"/>
  <text x="40" y="100" class="title">Student Laptop</text>
  <text x="40" y="124" class="text">Browser / SSH / RDP</text>
  <text x="40" y="146" class="text">Light ROS tools (optional)</text>

  <rect x="320" y="70" width="280" height="90" class="box"/>
  <text x="340" y="100" class="title">Secure Access</text>
  <text x="340" y="124" class="text">VPN / tunnel / auth gate</text>
  <text x="340" y="146" class="text">Latency is a constraint</text>

  <rect x="660" y="50" width="300" height="130" class="box"/>
  <text x="680" y="80" class="title">GPU Instance (Remote)</text>
  <text x="680" y="104" class="text">Isaac Sim + accelerated nodes</text>
  <text x="680" y="126" class="text">ROS graph endpoints</text>
  <text x="680" y="148" class="text">Persistent caches preferred</text>

  <rect x="660" y="200" width="300" height="60" class="box"/>
  <text x="680" y="232" class="title">Persistent Storage</text>
  <text x="680" y="254" class="text">Assets / datasets / bags</text>

  <line x1="260" y1="115" x2="320" y2="115" class="arrow"/>
  <line x1="600" y1="115" x2="660" y2="115" class="arrow"/>
  <line x1="810" y1="180" x2="810" y2="200" class="arrow"/>
</svg>

